<svg xmlns="http://www.w3.org/2000/svg" width="22" height="13" viewBox="0 0 22 13"><g><g><path fill="#fff" d="M14.359 1.84V.54h5.514v1.3zm-3.67 5.332c.355.523.533 1.158.533 1.904 0 .771-.2 1.463-.608 2.074-.26.405-.582.747-.97 1.022a3.843 3.843 0 0 1-1.544.652c-.595.117-1.24.176-1.934.176H0V0h6.613c1.666.026 2.848.484 3.546 1.385.419.552.626 1.214.626 1.985 0 .795-.21 1.43-.633 1.914-.235.27-.582.517-1.042.74.696.242 1.225.623 1.578 1.148zM3.157 5.125h2.897c.596 0 1.077-.107 1.448-.322.37-.215.555-.596.555-1.143 0-.605-.245-1.006-.736-1.2-.421-.134-.961-.203-1.616-.203H3.158zM8.337 8.89c0-.675-.29-1.142-.871-1.392-.324-.143-.782-.215-1.37-.22H3.159v3.464H6.05c.595 0 1.055-.074 1.387-.228.599-.283.899-.823.899-1.624zm13.582-2.114c.066.425.096 1.042.084 1.849h-7.14c.039.935.379 1.59 1.024 1.964.39.235.861.35 1.414.35.582 0 1.057-.14 1.423-.427.199-.153.375-.368.527-.64h2.617c-.068.553-.384 1.114-.95 1.684-.877.905-2.108 1.36-3.689 1.36-1.305 0-2.456-.384-3.455-1.147-.995-.765-1.495-2.007-1.495-3.73 0-1.616.449-2.852 1.35-3.713.903-.862 2.07-1.291 3.508-1.291.853 0 1.621.145 2.307.436.683.29 1.248.749 1.693 1.378.402.555.66 1.196.782 1.927zm-3.262-1.23c-.406-.335-.914-.504-1.52-.504-.659 0-1.168.18-1.53.534-.364.354-.59.834-.683 1.442h4.418c-.048-.647-.275-1.137-.685-1.471z"/></g></g></svg>