<svg xmlns="http://www.w3.org/2000/svg" width="25" height="25" viewBox="0 0 25 25"><g><g><path fill="#fff" d="M12.5 25c-1.717 0-3.335-.33-4.854-.99a12.731 12.731 0 0 1-3.972-2.684A12.734 12.734 0 0 1 .99 17.354 12.045 12.045 0 0 1 0 12.5c0-1.717.33-3.335.99-4.854a12.734 12.734 0 0 1 2.684-3.972A12.731 12.731 0 0 1 7.646.99C9.165.33 10.783 0 12.5 0s3.335.33 4.854.99a12.732 12.732 0 0 1 3.972 2.684 12.734 12.734 0 0 1 2.684 3.972c.66 1.519.99 3.137.99 4.854s-.33 3.335-.99 4.854a12.734 12.734 0 0 1-2.684 3.972 12.732 12.732 0 0 1-3.972 2.684c-1.519.66-3.137.99-4.854.99zm10.548-10.792c-.09-.018-.335-.081-.732-.19a11.934 11.934 0 0 0-1.492-.284 18.508 18.508 0 0 0-2.047-.15 13.785 13.785 0 0 0-2.4.163c.344.958.642 1.867.895 2.725.253.859.466 1.623.637 2.291.172.67.299 1.23.38 1.682.081.452.14.759.176.922a10.873 10.873 0 0 0 2.996-3.064 10.615 10.615 0 0 0 1.587-4.095zm-6.372 8.135a21.748 21.748 0 0 0-.217-1.112 52.173 52.173 0 0 0-.434-1.83c-.18-.714-.402-1.51-.664-2.386a36.72 36.72 0 0 0-.963-2.78c-.018.018-.045.027-.081.027-1.5.525-2.775 1.153-3.824 1.885-1.048.732-1.902 1.437-2.562 2.115-.66.678-1.143 1.27-1.45 1.776-.308.506-.489.804-.543.895a11.253 11.253 0 0 0 3.037 1.654 10.31 10.31 0 0 0 3.525.596c1.464 0 2.856-.28 4.176-.84zm-12.12-2.685c.053-.108.28-.452.677-1.03.398-.579.963-1.238 1.695-1.98.732-.74 1.622-1.486 2.67-2.236 1.05-.75 2.27-1.352 3.661-1.804a.674.674 0 0 1 .203-.067.673.673 0 0 0 .204-.068c-.145-.307-.29-.606-.434-.895-.145-.29-.29-.587-.434-.895-1.337.398-2.639.7-3.904.908-1.266.208-2.4.358-3.403.448-1.004.09-1.835.14-2.495.149-.66.01-1.053.014-1.18.014v.325c0 1.374.245 2.666.733 3.877a11.134 11.134 0 0 0 2.006 3.254zM2.06 10.331c.108 0 .452-.005 1.03-.014.579-.009 1.31-.054 2.196-.135a48.227 48.227 0 0 0 3.05-.394 37.193 37.193 0 0 0 3.594-.759c-.452-.777-.9-1.518-1.343-2.223-.443-.705-.845-1.333-1.206-1.885a56.483 56.483 0 0 0-.922-1.369 50.897 50.897 0 0 1-.488-.705A10.447 10.447 0 0 0 4.135 5.87a10.491 10.491 0 0 0-2.074 4.46zm7.944-8.189c.073.09.24.316.502.678.262.361.578.822.949 1.383.37.56.777 1.197 1.22 1.911.443.714.881 1.469 1.315 2.265.94-.344 1.754-.728 2.44-1.153a14.691 14.691 0 0 0 1.709-1.207c.452-.38.79-.705 1.017-.976.226-.27.366-.443.42-.515a10.736 10.736 0 0 0-3.24-1.98 10.44 10.44 0 0 0-3.837-.704c-.832 0-1.663.1-2.495.298zM20.77 5.775a10.928 10.928 0 0 1-1.586 1.613c-.48.407-1.08.841-1.803 1.302-.723.461-1.582.89-2.576 1.288.126.253.248.51.366.773.117.262.23.52.339.773.036.09.076.18.122.27.045.091.086.182.122.272a18.22 18.22 0 0 1 2.603-.136c.85.019 1.618.06 2.305.123.686.063 1.256.135 1.708.216.452.082.723.131.813.15a10.651 10.651 0 0 0-.65-3.58 10.571 10.571 0 0 0-1.763-3.064z"/></g></g></svg>