<svg xmlns="http://www.w3.org/2000/svg" width="22" height="20" viewBox="0 0 22 20"><g><g><path fill="#fff" d="M22 3.36v13.28c0 1.848-1.663 3.36-3.695 3.36H3.695C1.663 20 0 18.488 0 16.64V3.36C0 1.511 1.663 0 3.695 0h14.61C20.337 0 22 1.512 22 3.36zM8.25 7.5H5.5v8.75h2.75zm0-2.5c0-.69-.616-1.25-1.375-1.25-.76 0-1.375.56-1.375 1.25s.616 1.25 1.375 1.25c.76 0 1.375-.56 1.375-1.25zm9.625 5.625c0-1.726-1.385-3.125-3.094-3.125-.972 0-1.839.844-2.406 1.552V7.5h-2.75v8.75h2.75v-5c0-.69.616-1.25 1.375-1.25.76 0 1.375.56 1.375 1.25v5h2.75z"/></g></g></svg>