<svg xmlns="http://www.w3.org/2000/svg" width="21" height="16" viewBox="0 0 21 16"><g><g><path fill="#fff" d="M.644 3.618C.214 3.061 0 2.544 0 2.067 0 1.476.162.983.486.589c.324-.394.787-.591 1.389-.591h17.25c.508 0 .947.178 1.318.534.371.356.557.785.557 1.285 0 .598-.191 1.17-.574 1.716a5.482 5.482 0 0 1-1.43 1.398c-2.937 1.978-4.766 3.209-5.484 3.694-.078.053-.245.168-.498.346a23.57 23.57 0 0 1-.633.433c-.168.11-.371.232-.61.369a3.595 3.595 0 0 1-.673.307 1.912 1.912 0 0 1-.586.102h-.024c-.18 0-.375-.034-.586-.102a3.601 3.601 0 0 1-.674-.307 12.09 12.09 0 0 1-.61-.37c-.167-.109-.378-.253-.632-.432a65.49 65.49 0 0 0-.498-.346 596.244 596.244 0 0 0-3.07-2.074 529.136 529.136 0 0 1-2.402-1.62c-.485-.318-.942-.756-1.372-1.313zM21 5.158v9.025c0 .5-.184.928-.55 1.284a1.834 1.834 0 0 1-1.325.535H1.875c-.516 0-.957-.178-1.324-.535A1.725 1.725 0 0 1 0 14.183V5.158c.344.372.738.701 1.184.99 2.828 1.863 4.769 3.17 5.824 3.92.445.319.806.567 1.084.745.277.178.646.36 1.107.546.46.185.89.278 1.29.278h.023c.398 0 .828-.093 1.289-.278.46-.186.83-.368 1.107-.546.278-.178.639-.426 1.084-.745 1.328-.932 3.274-2.239 5.836-3.92A6.403 6.403 0 0 0 21 5.157z"/></g></g></svg>