<svg xmlns="http://www.w3.org/2000/svg" width="22" height="18" viewBox="0 0 22 18"><g><g><path fill="#fff" d="M21.393.332c-.873.521-1.84.9-2.868 1.104A4.484 4.484 0 0 0 15.232 0c-2.493 0-4.514 2.036-4.514 4.544 0 .356.04.704.117 1.036-3.75-.19-7.076-2-9.302-4.75-.39.67-.61 1.452-.61 2.285 0 1.578.797 2.969 2.007 3.783a4.487 4.487 0 0 1-2.045-.57v.056a4.543 4.543 0 0 0 3.62 4.458 4.525 4.525 0 0 1-2.039.077 4.525 4.525 0 0 0 4.215 3.157 9.018 9.018 0 0 1-5.604 1.944C.712 16.02.353 16 0 15.958A12.716 12.716 0 0 0 6.918 18C15.22 18 19.76 11.074 19.76 5.068l-.014-.589A9.118 9.118 0 0 0 22 2.129c-.81.362-1.678.607-2.591.717A4.565 4.565 0 0 0 21.393.332z"/></g></g></svg>