<svg xmlns="http://www.w3.org/2000/svg" width="22" height="22" viewBox="0 0 22 22"><g><g><path fill="#fff" d="M6.067 5.828C6.067 1.364 8.276 0 11 0c2.724 0 4.933 1.364 4.933 5.828 0 3.219-2.209 5.828-4.933 5.828-2.724 0-4.933-2.61-4.933-5.828zm15.731 15.6c-.23.358-.62.572-1.043.572H1.245c-.423 0-.813-.214-1.043-.571a1.262 1.262 0 0 1-.094-1.195l2.488-5.659c.114-.259.314-.473.563-.604l3.862-2.03a.247.247 0 0 1 .265.023A6.08 6.08 0 0 0 11 13.239a6.08 6.08 0 0 0 3.714-1.275.247.247 0 0 1 .265-.023l3.862 2.03c.249.13.449.345.563.604l2.488 5.66c.172.39.136.836-.094 1.194z"/></g></g></svg>